<svg xmlns="http://www.w3.org/2000/svg" width="1600" height="1440" viewBox="0 0 1600 1440"><title>Bir kopma. Dört farklı davranış.</title><rect width="1600" height="1440" fill="#f4f1e9"/><style>.construction{fill:none;stroke:#8c3e2f;stroke-width:.7;opacity:.25}.physical-path{fill:none;stroke:#85877d;stroke-width:2}.route{fill:none;stroke:#8c3e2f;stroke-width:2.4}.packet-path{fill:none;stroke:none}.fault-mark,.packet{display:none}.blocked-link{fill:none;stroke:#f4f1e9;stroke-width:5;stroke-dasharray:5 5}.node-label,.domain-label,.blocked-label{font:12px monospace;fill:#595d55}.network-domain{fill:none;stroke:#85877d;stroke-dasharray:2 5}.blocked-label{font-size:11px}</style><text x="60" y="95" font-family="Georgia,serif" font-size="56" fill="#242722">Bir kopma. Dört farklı davranış.</text><text x="60" y="180" font-family="Georgia,serif" font-size="44" fill="#242722">RSTP</text><svg x="60" y="220" width="680" height="450" class="protocol-topology" viewBox="0 0 600 400" role="img" aria-label="RSTP · kavramsal topoloji"><defs><pattern id="export-RSTP-hatch" width="5" height="5" patternUnits="userSpaceOnUse"><path d="M0 5L5 0" stroke="#393a3222" stroke-width=".6"/></pattern>
    <g id="export-RSTP-device"><path d="M-19-23L12-29 24-20V20L-8 29-19 20Z" fill="#f4f1e9" stroke="#595d55" stroke-width="1.1"/><path d="M-19-23L-8-14 24-20M-8-14V29" fill="none" stroke="#595d55" stroke-width=".8"/><path d="M-16-17V14M-12-13V18" stroke="#85877d" stroke-width=".7"/><path d="M-4-9L17-13V17L-4 22Z" fill="url(#export-RSTP-hatch)" stroke="#74776d" stroke-width=".6"/><path d="M1-5L12-7V0L1 2ZM1 6L12 4V11L1 13Z" fill="#777b70"/><path d="M2-4L11-5M2 7L11 6" stroke="#ece9df" stroke-width=".6"/></g></defs><g class="construction"><circle cx="300" cy="195" r="153"/><circle cx="300" cy="195" r="174"/><path d="M74 195H530M300 16V380M80 24H104M80 24V48M520 24H496M520 24V48"/></g><path class="physical-path" d="M300 72L465 170L402 315L198 315L135 170Z"/><path class="route route-a" d="M300 72L465 170L402 315"/><path class="route route-b" d="M300 72L135 170L198 315L402 315" stroke="#a27838"/><path class="blocked-link" d="M300 72L135 170"/><text x="123" y="105" class="blocked-label">Bekleyen yol</text><g class="fault-mark"><path d="M429 224L441 255"/><path d="M428 234L443 248M443 234L428 248"/></g><path class="packet-path path-a" d="M300 72L465 170L402 315"/><path class="packet-path path-b" d="M300 72L135 170L198 315L402 315"/><use href="#export-RSTP-device" x="300" y="72"/><use href="#export-RSTP-device" x="465" y="170"/><use href="#export-RSTP-device" x="402" y="315"/><use href="#export-RSTP-device" x="198" y="315"/><use href="#export-RSTP-device" x="135" y="170"/><text x="332" y="56" class="node-label">S</text><text x="429" y="341" class="node-label">D</text><circle class="packet packet-a" r="5"/><circle class="packet packet-b" r="5" fill="#a27838"/></svg><text x="60" y="710" font-family="Arial,sans-serif" font-size="18" fill="#595d55">Bekleyen yol arızadan sonra açılır.</text><text x="820" y="180" font-family="Georgia,serif" font-size="44" fill="#242722">MRP</text><svg x="820" y="220" width="680" height="450" class="protocol-topology" viewBox="0 0 600 400" role="img" aria-label="MRP · kavramsal topoloji"><defs><pattern id="export-MRP-hatch" width="5" height="5" patternUnits="userSpaceOnUse"><path d="M0 5L5 0" stroke="#393a3222" stroke-width=".6"/></pattern>
    <g id="export-MRP-device"><path d="M-19-23L12-29 24-20V20L-8 29-19 20Z" fill="#f4f1e9" stroke="#595d55" stroke-width="1.1"/><path d="M-19-23L-8-14 24-20M-8-14V29" fill="none" stroke="#595d55" stroke-width=".8"/><path d="M-16-17V14M-12-13V18" stroke="#85877d" stroke-width=".7"/><path d="M-4-9L17-13V17L-4 22Z" fill="url(#export-MRP-hatch)" stroke="#74776d" stroke-width=".6"/><path d="M1-5L12-7V0L1 2ZM1 6L12 4V11L1 13Z" fill="#777b70"/><path d="M2-4L11-5M2 7L11 6" stroke="#ece9df" stroke-width=".6"/></g></defs><g class="construction"><circle cx="300" cy="195" r="153"/><circle cx="300" cy="195" r="174"/><path d="M74 195H530M300 16V380M80 24H104M80 24V48M520 24H496M520 24V48"/></g><path class="physical-path" d="M300 72L465 170L402 315L198 315L135 170Z"/><path class="route route-a" d="M300 72L465 170L402 315"/><path class="route route-b" d="M300 72L135 170L198 315L402 315" stroke="#a27838"/><path class="blocked-link" d="M300 72L135 170"/><text x="123" y="105" class="blocked-label">Bekleyen yol</text><g class="fault-mark"><path d="M429 224L441 255"/><path d="M428 234L443 248M443 234L428 248"/></g><path class="packet-path path-a" d="M300 72L465 170L402 315"/><path class="packet-path path-b" d="M300 72L135 170L198 315L402 315"/><use href="#export-MRP-device" x="300" y="72"/><use href="#export-MRP-device" x="465" y="170"/><use href="#export-MRP-device" x="402" y="315"/><use href="#export-MRP-device" x="198" y="315"/><use href="#export-MRP-device" x="135" y="170"/><text x="332" y="56" class="node-label">MRM</text><text x="429" y="341" class="node-label">D</text><circle class="packet packet-a" r="5"/><circle class="packet packet-b" r="5" fill="#a27838"/></svg><text x="820" y="710" font-family="Arial,sans-serif" font-size="18" fill="#595d55">Yönetilen halka arızadan sonra yeniden düzenlenir.</text><text x="60" y="760" font-family="Georgia,serif" font-size="44" fill="#242722">HSR</text><svg x="60" y="800" width="680" height="450" class="protocol-topology" viewBox="0 0 600 400" role="img" aria-label="HSR · kavramsal topoloji"><defs><pattern id="export-HSR-hatch" width="5" height="5" patternUnits="userSpaceOnUse"><path d="M0 5L5 0" stroke="#393a3222" stroke-width=".6"/></pattern>
    <g id="export-HSR-device"><path d="M-19-23L12-29 24-20V20L-8 29-19 20Z" fill="#f4f1e9" stroke="#595d55" stroke-width="1.1"/><path d="M-19-23L-8-14 24-20M-8-14V29" fill="none" stroke="#595d55" stroke-width=".8"/><path d="M-16-17V14M-12-13V18" stroke="#85877d" stroke-width=".7"/><path d="M-4-9L17-13V17L-4 22Z" fill="url(#export-HSR-hatch)" stroke="#74776d" stroke-width=".6"/><path d="M1-5L12-7V0L1 2ZM1 6L12 4V11L1 13Z" fill="#777b70"/><path d="M2-4L11-5M2 7L11 6" stroke="#ece9df" stroke-width=".6"/></g></defs><g class="construction"><circle cx="300" cy="195" r="153"/><circle cx="300" cy="195" r="174"/><path d="M74 195H530M300 16V380M80 24H104M80 24V48M520 24H496M520 24V48"/></g><path class="physical-path" d="M300 72L465 170L402 315L198 315L135 170Z"/><path class="route route-a" d="M300 72L465 170L402 315"/><path class="route route-b" d="M300 72L135 170L198 315L402 315" stroke="#a27838"/><g class="fault-mark"><path d="M429 224L441 255"/><path d="M428 234L443 248M443 234L428 248"/></g><path class="packet-path path-a" d="M300 72L465 170L402 315"/><path class="packet-path path-b" d="M300 72L135 170L198 315L402 315"/><use href="#export-HSR-device" x="300" y="72"/><use href="#export-HSR-device" x="465" y="170"/><use href="#export-HSR-device" x="402" y="315"/><use href="#export-HSR-device" x="198" y="315"/><use href="#export-HSR-device" x="135" y="170"/><text x="332" y="56" class="node-label">DANH</text><text x="429" y="341" class="node-label">DANH</text><circle class="packet packet-a" r="5"/><circle class="packet packet-b" r="5" fill="#a27838"/></svg><text x="60" y="1290" font-family="Arial,sans-serif" font-size="18" fill="#595d55">Aynı çerçeve halkanın iki yönüne önceden gönderilir.</text><text x="820" y="760" font-family="Georgia,serif" font-size="44" fill="#242722">PRP</text><svg x="820" y="800" width="680" height="450" class="protocol-topology" viewBox="0 0 600 400" role="img" aria-label="PRP · kavramsal topoloji"><defs><pattern id="export-PRP-hatch" width="5" height="5" patternUnits="userSpaceOnUse"><path d="M0 5L5 0" stroke="#393a3222" stroke-width=".6"/></pattern>
    <g id="export-PRP-device"><path d="M-19-23L12-29 24-20V20L-8 29-19 20Z" fill="#f4f1e9" stroke="#595d55" stroke-width="1.1"/><path d="M-19-23L-8-14 24-20M-8-14V29" fill="none" stroke="#595d55" stroke-width=".8"/><path d="M-16-17V14M-12-13V18" stroke="#85877d" stroke-width=".7"/><path d="M-4-9L17-13V17L-4 22Z" fill="url(#export-PRP-hatch)" stroke="#74776d" stroke-width=".6"/><path d="M1-5L12-7V0L1 2ZM1 6L12 4V11L1 13Z" fill="#777b70"/><path d="M2-4L11-5M2 7L11 6" stroke="#ece9df" stroke-width=".6"/></g></defs><g class="construction"><circle cx="300" cy="195" r="153"/><circle cx="300" cy="195" r="174"/><path d="M74 195H530M300 16V380M80 24H104M80 24V48M520 24H496M520 24V48"/></g><g class="physical-path"><path d="M300 62L148 160L300 318"/><path d="M300 62L452 160L480 230L300 318"/></g><g class="network-domain"><ellipse cx="148" cy="166" rx="98" ry="74"/><ellipse cx="452" cy="166" rx="98" ry="74"/></g>
        <text x="148" y="275" class="domain-label">LAN A</text><text x="452" y="275" class="domain-label">LAN B</text>
        <path class="route route-a" d="M300 62L148 160L300 318"/><path class="route route-b" d="M300 62L452 160L480 230L300 318" stroke="#a27838"/>
        <g class="fault-mark"><path d="M202 233L234 273"/><path d="M213 238L226 253M226 238L213 253"/></g>
        <path class="packet-path path-a" d="M300 62L148 160L300 318"/><path class="packet-path path-b" d="M300 62L452 160L480 230L300 318"/>
        <use href="#export-PRP-device" x="300" y="62"/><use href="#export-PRP-device" x="148" y="160"/><use href="#export-PRP-device" x="452" y="160"/><use href="#export-PRP-device" x="300" y="318"/>
        <text x="328" y="53" class="node-label">DANP</text><text x="328" y="338" class="node-label">DANP</text><circle class="packet packet-a" r="5"/><circle class="packet packet-b" r="5" fill="#a27838"/></svg><text x="820" y="1290" font-family="Arial,sans-serif" font-size="18" fill="#595d55">Aynı çerçeve iki ayrı LAN’a önceden gönderilir.</text><text x="60" y="1400" font-family="Arial,sans-serif" font-size="18" fill="#595d55">Kavramsal karşılaştırma · Ölçülmüş toparlanma süresi göstermez.</text></svg>